<svg xmlns="http://www.w3.org/2000/svg" id="h5fig10-figure" width="310" height="310" viewBox="0 0 310 310">
  <defs>
    <clipPath id="h5fig10-__clipPath-0">
      <rect x="5.0" y="5.0" width="300.0" height="300.0"/>
    </clipPath>
    <clipPath id="h5fig10-__clipPath-1">
      <rect x="5.0" y="5.0" width="300.0" height="300.0"/>
    </clipPath>
  </defs>
  <path id="h5fig10-__path-0" d="M 5.0 305.0 L 305.0 305.0 L 305.0 5.0 L 5.0 5.0 Z" stroke="none" stroke-width="2" fill="blue"/>
  <path id="h5fig10-__path-1" d="M 280.0 155.0 L 279.9 151.9 L 279.6 148.7 L 279.1 145.6 L 278.4 142.6 L 277.6 139.5 L 276.5 136.6 L 275.2 133.7 L 273.8 130.9 L 272.2 128.2 L 270.5 125.6 L 268.5 123.1 L 266.4 120.8 L 264.2 118.6 L 261.9 116.5 L 259.4 114.5 L 256.8 112.8 L 254.1 111.2 L 251.3 109.8 L 248.4 108.5 L 245.5 107.4 L 242.4 106.6 L 239.4 105.9 L 236.3 105.4 L 233.1 105.1 L 230.0 105.0 L 226.9 105.1 L 223.7 105.4 L 220.6 105.9 L 217.6 106.6 L 214.5 107.4 L 211.6 108.5 L 208.7 109.8 L 205.9 111.2 L 203.2 112.8 L 200.6 114.5 L 198.1 116.5 L 195.8 118.6 L 193.6 120.8 L 191.5 123.1 L 189.5 125.6 L 187.8 128.2 L 186.2 130.9 L 184.8 133.7 L 183.5 136.6 L 182.4 139.5 L 181.6 142.6 L 180.9 145.6 L 180.4 148.7 L 180.1 151.9 L 180.0 155.0 L 180.1 158.1 L 180.4 161.3 L 180.9 164.4 L 181.6 167.4 L 182.4 170.5 L 183.5 173.4 L 184.8 176.3 L 186.2 179.1 L 187.8 181.8 L 189.5 184.4 L 191.5 186.9 L 193.6 189.2 L 195.8 191.4 L 198.1 193.5 L 200.6 195.5 L 203.2 197.2 L 205.9 198.8 L 208.7 200.2 L 211.6 201.5 L 214.5 202.6 L 217.6 203.4 L 220.6 204.1 L 223.7 204.6 L 226.9 204.9 L 230.0 205.0 L 233.1 204.9 L 236.3 204.6 L 239.4 204.1 L 242.4 203.4 L 245.5 202.6 L 248.4 201.5 L 251.3 200.2 L 254.1 198.8 L 256.8 197.2 L 259.4 195.5 L 261.9 193.5 L 264.2 191.4 L 266.4 189.2 L 268.5 186.9 L 270.5 184.4 L 272.2 181.8 L 273.8 179.1 L 275.2 176.3 L 276.5 173.4 L 277.6 170.5 L 278.4 167.4 L 279.1 164.4 L 279.6 161.3 L 279.9 158.1 Z" stroke="black" stroke-width="0" fill="white"/>
  <path id="h5fig10-__path-2" d="M 130.0 155.0 L 129.9 151.9 L 129.6 148.7 L 129.1 145.6 L 128.4 142.6 L 127.6 139.5 L 126.5 136.6 L 125.2 133.7 L 123.8 130.9 L 122.2 128.2 L 120.5 125.6 L 118.5 123.1 L 116.4 120.8 L 114.2 118.6 L 111.9 116.5 L 109.4 114.5 L 106.8 112.8 L 104.1 111.2 L 101.3 109.8 L 98.4 108.5 L 95.5 107.4 L 92.4 106.6 L 89.4 105.9 L 86.3 105.4 L 83.1 105.1 L 80.0 105.0 L 76.9 105.1 L 73.7 105.4 L 70.6 105.9 L 67.6 106.6 L 64.5 107.4 L 61.6 108.5 L 58.7 109.8 L 55.9 111.2 L 53.2 112.8 L 50.6 114.5 L 48.1 116.5 L 45.8 118.6 L 43.6 120.8 L 41.5 123.1 L 39.5 125.6 L 37.8 128.2 L 36.2 130.9 L 34.8 133.7 L 33.5 136.6 L 32.4 139.5 L 31.6 142.6 L 30.9 145.6 L 30.4 148.7 L 30.1 151.9 L 30.0 155.0 L 30.1 158.1 L 30.4 161.3 L 30.9 164.4 L 31.6 167.4 L 32.4 170.5 L 33.5 173.4 L 34.8 176.3 L 36.2 179.1 L 37.8 181.8 L 39.5 184.4 L 41.5 186.9 L 43.6 189.2 L 45.8 191.4 L 48.1 193.5 L 50.6 195.5 L 53.2 197.2 L 55.9 198.8 L 58.7 200.2 L 61.6 201.5 L 64.5 202.6 L 67.6 203.4 L 70.6 204.1 L 73.7 204.6 L 76.9 204.9 L 80.0 205.0 L 83.1 204.9 L 86.3 204.6 L 89.4 204.1 L 92.4 203.4 L 95.5 202.6 L 98.4 201.5 L 101.3 200.2 L 104.1 198.8 L 106.8 197.2 L 109.4 195.5 L 111.9 193.5 L 114.2 191.4 L 116.4 189.2 L 118.5 186.9 L 120.5 184.4 L 122.2 181.8 L 123.8 179.1 L 125.2 176.3 L 126.5 173.4 L 127.6 170.5 L 128.4 167.4 L 129.1 164.4 L 129.6 161.3 L 129.9 158.1 Z" stroke="black" stroke-width="0" fill="white"/>
  <g id="h5fig10-__label-0" transform="translate(80.0,109.0) translate(-9.8,-0.0)">
    <g id="h5fig10-__g-0">
      <svg xmlns:xlink="http://www.w3.org/1999/xlink" style="vertical-align: 0.000px; color:black" width="19.544px" height="18.664px" role="img" focusable="false" viewBox="0 -1031 1080 1031" x="0.0" y="0.0">
        <defs>
          <path id="h5fig10-MJX-1-TEX-I-1D434" d="M208 74Q208 50 254 46Q272 46 272 35Q272 34 270 22Q267 8 264 4T251 0Q249 0 239 0T205 1T141 2Q70 2 50 0H42Q35 7 35 11Q37 38 48 46H62Q132 49 164 96Q170 102 345 401T523 704Q530 716 547 716H555H572Q578 707 578 706L606 383Q634 60 636 57Q641 46 701 46Q726 46 726 36Q726 34 723 22Q720 7 718 4T704 0Q701 0 690 0T651 1T578 2Q484 2 455 0H443Q437 6 437 9T439 27Q443 40 445 43L449 46H469Q523 49 533 63L521 213H283L249 155Q208 86 208 74ZM516 260Q516 271 504 416T490 562L463 519Q447 492 400 412L310 260L413 259Q516 259 516 260Z"/>
        </defs>
        <g stroke="currentColor" fill="currentColor" stroke-width="0" transform="scale(1,-1)">
          <g data-mml-node="math">
            <g data-mml-node="mstyle" transform="scale(1.44)">
              <g data-mml-node="mi" data-semantic-type="identifier" data-semantic-role="latinletter" data-semantic-font="italic" data-semantic-annotation="clearspeak:simple" data-semantic-id="0" data-semantic-speech="upper A">
                <use data-c="1D434" xlink:href="#h5fig10-MJX-1-TEX-I-1D434"/>
              </g>
            </g>
          </g>
        </g>
      </svg>
    </g>
  </g>
  <g id="h5fig10-__label-1" transform="translate(230.0,109.0) translate(-9.9,-0.0)">
    <g id="h5fig10-__g-1">
      <svg xmlns:xlink="http://www.w3.org/1999/xlink" style="vertical-align: 0.000px; color:black" width="19.784px" height="17.800px" role="img" focusable="false" viewBox="0 -983.5 1093 983.5" x="0.0" y="0.0">
        <defs>
          <path id="h5fig10-MJX-2-TEX-I-1D435" d="M231 637Q204 637 199 638T194 649Q194 676 205 682Q206 683 335 683Q594 683 608 681Q671 671 713 636T756 544Q756 480 698 429T565 360L555 357Q619 348 660 311T702 219Q702 146 630 78T453 1Q446 0 242 0Q42 0 39 2Q35 5 35 10Q35 17 37 24Q42 43 47 45Q51 46 62 46H68Q95 46 128 49Q142 52 147 61Q150 65 219 339T288 628Q288 635 231 637ZM649 544Q649 574 634 600T585 634Q578 636 493 637Q473 637 451 637T416 636H403Q388 635 384 626Q382 622 352 506Q352 503 351 500L320 374H401Q482 374 494 376Q554 386 601 434T649 544ZM595 229Q595 273 572 302T512 336Q506 337 429 337Q311 337 310 336Q310 334 293 263T258 122L240 52Q240 48 252 48T333 46Q422 46 429 47Q491 54 543 105T595 229Z"/>
        </defs>
        <g stroke="currentColor" fill="currentColor" stroke-width="0" transform="scale(1,-1)">
          <g data-mml-node="math">
            <g data-mml-node="mstyle" transform="scale(1.44)">
              <g data-mml-node="mi" data-semantic-type="identifier" data-semantic-role="latinletter" data-semantic-font="italic" data-semantic-annotation="clearspeak:simple" data-semantic-id="0" data-semantic-speech="upper B">
                <use data-c="1D435" xlink:href="#h5fig10-MJX-2-TEX-I-1D435"/>
              </g>
            </g>
          </g>
        </g>
      </svg>
    </g>
  </g>
  <g id="h5fig10-__label-2" transform="translate(284.0,26.0) translate(0.0,-19.0)">
    <g id="h5fig10-__g-2">
      <svg xmlns:xlink="http://www.w3.org/1999/xlink" style="vertical-align: -0.576px; color:black" width="16.808px" height="18.952px" role="img" focusable="false" viewBox="0 -1015.2 928.8 1046.9" x="0.0" y="0.0">
        <defs>
          <path id="h5fig10-MJX-3-TEX-I-1D446" d="M308 24Q367 24 416 76T466 197Q466 260 414 284Q308 311 278 321T236 341Q176 383 176 462Q176 523 208 573T273 648Q302 673 343 688T407 704H418H425Q521 704 564 640Q565 640 577 653T603 682T623 704Q624 704 627 704T632 705Q645 705 645 698T617 577T585 459T569 456Q549 456 549 465Q549 471 550 475Q550 478 551 494T553 520Q553 554 544 579T526 616T501 641Q465 662 419 662Q362 662 313 616T263 510Q263 480 278 458T319 427Q323 425 389 408T456 390Q490 379 522 342T554 242Q554 216 546 186Q541 164 528 137T492 78T426 18T332 -20Q320 -22 298 -22Q199 -22 144 33L134 44L106 13Q83 -14 78 -18T65 -22Q52 -22 52 -14Q52 -11 110 221Q112 227 130 227H143Q149 221 149 216Q149 214 148 207T144 186T142 153Q144 114 160 87T203 47T255 29T308 24Z"/>
        </defs>
        <g stroke="currentColor" fill="currentColor" stroke-width="0" transform="scale(1,-1)">
          <g data-mml-node="math">
            <g data-mml-node="mstyle" transform="scale(1.44)">
              <g data-mml-node="mi" data-semantic-type="identifier" data-semantic-role="latinletter" data-semantic-font="italic" data-semantic-annotation="clearspeak:simple" data-semantic-id="0" data-semantic-speech="upper S">
                <use data-c="1D446" xlink:href="#h5fig10-MJX-3-TEX-I-1D446"/>
              </g>
            </g>
          </g>
        </g>
      </svg>
    </g>
  </g>
  <path id="h5fig10-__path-3" d="M 5.0 305.0 L 305.0 305.0 L 305.0 5.0 L 5.0 5.0 Z" stroke="black" stroke-width="2" fill="none"/>
  <path id="h5fig10-__path-4" d="M 130.0 155.0 L 129.9 151.9 L 129.6 148.7 L 129.1 145.6 L 128.4 142.6 L 127.6 139.5 L 126.5 136.6 L 125.2 133.7 L 123.8 130.9 L 122.2 128.2 L 120.5 125.6 L 118.5 123.1 L 116.4 120.8 L 114.2 118.6 L 111.9 116.5 L 109.4 114.5 L 106.8 112.8 L 104.1 111.2 L 101.3 109.8 L 98.4 108.5 L 95.5 107.4 L 92.4 106.6 L 89.4 105.9 L 86.3 105.4 L 83.1 105.1 L 80.0 105.0 L 76.9 105.1 L 73.7 105.4 L 70.6 105.9 L 67.6 106.6 L 64.5 107.4 L 61.6 108.5 L 58.7 109.8 L 55.9 111.2 L 53.2 112.8 L 50.6 114.5 L 48.1 116.5 L 45.8 118.6 L 43.6 120.8 L 41.5 123.1 L 39.5 125.6 L 37.8 128.2 L 36.2 130.9 L 34.8 133.7 L 33.5 136.6 L 32.4 139.5 L 31.6 142.6 L 30.9 145.6 L 30.4 148.7 L 30.1 151.9 L 30.0 155.0 L 30.1 158.1 L 30.4 161.3 L 30.9 164.4 L 31.6 167.4 L 32.4 170.5 L 33.5 173.4 L 34.8 176.3 L 36.2 179.1 L 37.8 181.8 L 39.5 184.4 L 41.5 186.9 L 43.6 189.2 L 45.8 191.4 L 48.1 193.5 L 50.6 195.5 L 53.2 197.2 L 55.9 198.8 L 58.7 200.2 L 61.6 201.5 L 64.5 202.6 L 67.6 203.4 L 70.6 204.1 L 73.7 204.6 L 76.9 204.9 L 80.0 205.0 L 83.1 204.9 L 86.3 204.6 L 89.4 204.1 L 92.4 203.4 L 95.5 202.6 L 98.4 201.5 L 101.3 200.2 L 104.1 198.8 L 106.8 197.2 L 109.4 195.5 L 111.9 193.5 L 114.2 191.4 L 116.4 189.2 L 118.5 186.9 L 120.5 184.4 L 122.2 181.8 L 123.8 179.1 L 125.2 176.3 L 126.5 173.4 L 127.6 170.5 L 128.4 167.4 L 129.1 164.4 L 129.6 161.3 L 129.9 158.1 Z" stroke="black" stroke-width="3" fill="none"/>
  <path id="h5fig10-__path-5" d="M 280.0 155.0 L 279.9 151.9 L 279.6 148.7 L 279.1 145.6 L 278.4 142.6 L 277.6 139.5 L 276.5 136.6 L 275.2 133.7 L 273.8 130.9 L 272.2 128.2 L 270.5 125.6 L 268.5 123.1 L 266.4 120.8 L 264.2 118.6 L 261.9 116.5 L 259.4 114.5 L 256.8 112.8 L 254.1 111.2 L 251.3 109.8 L 248.4 108.5 L 245.5 107.4 L 242.4 106.6 L 239.4 105.9 L 236.3 105.4 L 233.1 105.1 L 230.0 105.0 L 226.9 105.1 L 223.7 105.4 L 220.6 105.9 L 217.6 106.6 L 214.5 107.4 L 211.6 108.5 L 208.7 109.8 L 205.9 111.2 L 203.2 112.8 L 200.6 114.5 L 198.1 116.5 L 195.8 118.6 L 193.6 120.8 L 191.5 123.1 L 189.5 125.6 L 187.8 128.2 L 186.2 130.9 L 184.8 133.7 L 183.5 136.6 L 182.4 139.5 L 181.6 142.6 L 180.9 145.6 L 180.4 148.7 L 180.1 151.9 L 180.0 155.0 L 180.1 158.1 L 180.4 161.3 L 180.9 164.4 L 181.6 167.4 L 182.4 170.5 L 183.5 173.4 L 184.8 176.3 L 186.2 179.1 L 187.8 181.8 L 189.5 184.4 L 191.5 186.9 L 193.6 189.2 L 195.8 191.4 L 198.1 193.5 L 200.6 195.5 L 203.2 197.2 L 205.9 198.8 L 208.7 200.2 L 211.6 201.5 L 214.5 202.6 L 217.6 203.4 L 220.6 204.1 L 223.7 204.6 L 226.9 204.9 L 230.0 205.0 L 233.1 204.9 L 236.3 204.6 L 239.4 204.1 L 242.4 203.4 L 245.5 202.6 L 248.4 201.5 L 251.3 200.2 L 254.1 198.8 L 256.8 197.2 L 259.4 195.5 L 261.9 193.5 L 264.2 191.4 L 266.4 189.2 L 268.5 186.9 L 270.5 184.4 L 272.2 181.8 L 273.8 179.1 L 275.2 176.3 L 276.5 173.4 L 277.6 170.5 L 278.4 167.4 L 279.1 164.4 L 279.6 161.3 L 279.9 158.1 Z" stroke="black" stroke-width="3" fill="none"/>
</svg>
